# xmcd
#
# Track frame offsets: 
#        150
#        16379
#        34951
#        49946
#        69096
#        85818
#        100356
#        118040
#        134483
#        152264
#        170258
#        186317
#        202130
#        224643
#        239697
#        254181
#
# Disc length: 3777 seconds
#
# Revision: 1
# Processed by: cddbd v1.5.2PL0 Copyright (c) Steve Scherf et al.
# Submitted via: ExactAudioCopyFreeDBPlugin 1.0
#
DISCID=f10ebf10
DTITLE=Timo Pieni Huijaus - Em‰vale
DYEAR=2010
DGENRE=Hip-Hop
TTITLE0=Vermo
TTITLE1=Tee Mit‰ Pit‰‰
TTITLE2=Ilotalo (Nti. Heyhei)
TTITLE3=Onnenpotkut (feat. Gbrl)
TTITLE4=Katusoittaja (feat. Riku Rajamaa)
TTITLE5=Mun Hattu
TTITLE6=Maksoin (feat. JoniVeli)
TTITLE7=Pennist
TTITLE8=Robin Of Velkala
TTITLE9=Niin Isol Ku Mahtuu
TTITLE10=Varjoon J‰‰
TTITLE11=Kahdeksas Veljes
TTITLE12=Tuulimylly
TTITLE13=Ved‰ Se Yli (feat. Koala Kl‰k)
TTITLE14=Kuningas (feat. Elastinen)
TTITLE15=Ruusutarha (feat. Illi)
EXTD=
EXTT0=
EXTT1=
EXTT2=
EXTT3=
EXTT4=
EXTT5=
EXTT6=
EXTT7=
EXTT8=
EXTT9=
EXTT10=
EXTT11=
EXTT12=
EXTT13=
EXTT14=
EXTT15=
PLAYORDER=
